PathFileType	4	(X/Y/Z)	s06c0102.trc
DataRate	CameraRate	NumFrames	NumMarkers	Units	OrigDataRate	OrigDataStartFrame	OrigNumFrames
200	200	4	48	mm	200	0	2000
Frame#	Time	racr			lacr			c7			jug			rlel			rdr			llel			ldr			s2			lic			ric			lasi			rasi			rpsi			lpsi			rgt			lgt			rth1			rth2			rth3			rth4			rlfc			rmfc			rsh1			rsh2			rsh3			rsh4			rlmal			rcal			rtoe			rmt5			lth1			lth2			lth4			lth3			llfc			lmfc			llmal			lcal			lmt5			lsh1			lsh2			lsh3			lsh4			ltoe			SBIKE			LBIKE			RBIKE			
		X1	Y1	Z1	X2	Y2	Z2	X3	Y3	Z3	X4	Y4	Z4	X5	Y5	Z5	X6	Y6	Z6	X7	Y7	Z7	X8	Y8	Z8	X9	Y9	Z9	X10	Y10	Z10	X11	Y11	Z11	X12	Y12	Z12	X13	Y13	Z13	X14	Y14	Z14	X15	Y15	Z15	X16	Y16	Z16	X17	Y17	Z17	X18	Y18	Z18	X19	Y19	Z19	X20	Y20	Z20	X21	Y21	Z21	X22	Y22	Z22	X23	Y23	Z23	X24	Y24	Z24	X25	Y25	Z25	X26	Y26	Z26	X27	Y27	Z27	X28	Y28	Z28	X29	Y29	Z29	X30	Y30	Z30	X31	Y31	Z31	X32	Y32	Z32	X33	Y33	Z33	X34	Y34	Z34	X35	Y35	Z35	X36	Y36	Z36	X37	Y37	Z37	X38	Y38	Z38	X39	Y39	Z39	X40	Y40	Z40	X41	Y41	Z41	X42	Y42	Z42	X43	Y43	Z43	X44	Y44	Z44	X45	Y45	Z45	X46	Y46	Z46	X47	Y47	Z47	X48	Y48	Z48	
0	0.0000	456.095123	1324.754794	-68.872689	472.625705	1328.524480	-398.520702	456.363642	1413.158133	-232.786998	483.971007	1260.293514	-228.576289	512.415378	1072.269089	10.015079	715.180179	927.473542	-54.461619	500.043746	1064.657846	-469.781281	633.996976	834.424366	-434.346842	-35.730304	1135.949585	-224.321159	149.235512	1087.530899	-397.152241	123.469946	1102.537338	-59.668825	153.334313	1021.702841	-364.074569	143.225380	1049.675124	-87.705921	4.343606	1173.150973	-200.475067	-0.822803	1166.080406	-261.173557	82.403741	1052.818378	-23.859809	99.687831	1018.824058	-424.078745	183.769222	983.183875	-20.716235	270.946288	957.510497	-24.065439	331.082351	895.047371	-24.681359	286.958720	987.136174	-43.099615	395.508191	808.675389	-45.156952	393.131051	782.373983	-155.055033	354.331696	693.666008	-18.266055	343.379593	608.469921	-38.507115	294.440579	536.804857	-40.869148	364.672724	604.813950	-71.580520	258.678494	458.498337	-46.284636	196.050876	428.489276	-96.183009	470.756524	407.064009	-103.042496	375.985850	386.920866	-30.113593	143.452921	906.550724	-428.615176	211.256946	853.692625	-420.875898	240.073155	874.612388	-408.783493	243.737491	769.915617	-412.573293	267.263073	662.805613	-383.911808	267.440311	646.428950	-267.339153	20.145978	388.160765	-376.570653	-54.829062	401.303032	-329.693587	82.975538	260.457471	-400.491445	200.416842	580.930719	-406.560554	161.332947	505.263940	-387.888415	87.228585	455.632349	-387.051970	181.121140	492.949483	-356.551133	158.782893	218.845530	-343.175970	-158.448196	855.153653	-222.136913	-48.860432	80.022645	-414.542087	-48.578569	79.508303	-17.074941	
1	0.0050	456.267394	1324.679314	-68.775100	472.857446	1328.363016	-398.389845	456.563358	1413.043757	-232.697496	484.217441	1260.173176	-228.484859	512.554021	1072.162607	10.087569	715.118303	927.402757	-54.262917	499.935932	1064.412319	-469.467880	634.098854	834.227958	-434.461053	-35.755292	1136.289895	-224.030908	149.505625	1087.411775	-397.163262	123.617156	1102.552216	-59.721257	153.540972	1021.598560	-364.141565	143.296320	1049.642734	-87.722908	4.467563	1173.185006	-200.541169	-0.667241	1166.106395	-261.263914	82.550876	1052.971850	-23.894939	99.863453	1018.781685	-424.143839	183.902110	983.246317	-20.773093	271.055309	957.541048	-24.131878	331.181734	895.055478	-24.752431	287.091192	987.192724	-43.178993	395.605144	808.723741	-45.263790	393.216423	782.370894	-155.122441	354.421048	693.687658	-18.318746	343.451672	608.481946	-38.532492	294.524084	536.826050	-40.880500	364.750502	604.834630	-71.626214	258.747086	458.523430	-46.277544	196.096715	428.535206	-96.160675	470.780175	406.986980	-103.042729	376.011710	386.883836	-30.124444	143.543039	906.517120	-428.656894	211.346229	853.616443	-420.946965	240.165054	874.521261	-408.834515	243.807836	769.874737	-412.654517	267.350067	662.757207	-383.956866	267.542238	646.417006	-267.419764	20.165373	388.204248	-376.564761	-54.812326	401.331549	-329.688927	82.952594	260.479838	-400.488482	200.497638	580.897232	-406.577411	161.366293	505.254147	-387.907143	87.254039	455.640930	-387.048268	181.164646	492.922520	-356.581372	158.777663	218.840544	-343.166040	-158.492310	855.167694	-222.200243	-48.859191	80.029949	-414.543468	-48.580554	79.530834	-17.041379	
2	0.0100	456.476182	1324.582083	-68.667234	473.111149	1328.177820	-398.251563	456.749595	1412.947246	-232.641844	484.449742	1260.076434	-228.364175	512.701483	1072.042329	10.134358	714.904178	927.098615	-54.136061	499.915940	1064.170850	-469.151301	634.136416	834.202603	-434.431864	-35.566836	1136.303129	-224.101998	149.762394	1087.312120	-397.180742	123.724413	1102.563323	-59.734127	153.690693	1021.467880	-364.173797	143.403321	1049.645327	-87.719861	4.654356	1173.216849	-200.632034	-0.469138	1166.116210	-261.360475	82.682819	1053.055335	-23.959637	100.031162	1018.718571	-424.188753	184.029309	983.293610	-20.831302	271.148940	957.553491	-24.189942	331.296656	895.105959	-24.802799	287.199368	987.205134	-43.227754	395.689329	808.716906	-45.333678	393.314056	782.369393	-155.183472	354.518734	693.701657	-18.373706	343.550038	608.502409	-38.568963	294.604053	536.838490	-40.894323	364.843450	604.845097	-71.648484	258.818463	458.531520	-46.277187	196.157948	428.575535	-96.149561	470.835234	406.916487	-103.048869	376.048962	386.842009	-30.116787	143.644840	906.470557	-428.707080	211.454182	853.578274	-421.012820	240.272753	874.463828	-408.891670	243.901321	769.817674	-412.704888	267.428635	662.712182	-383.999404	267.654376	646.384845	-267.463820	20.166796	388.259276	-376.576976	-54.808361	401.380030	-329.683803	82.959886	260.506217	-400.480853	200.552333	580.879633	-406.611389	161.409882	505.253955	-387.930284	87.282370	455.651296	-387.058772	181.200246	492.925177	-356.609830	158.754783	218.867321	-343.172703	-156.064557	852.682731	-225.072489	-48.859255	80.040112	-414.540972	-48.602451	79.543456	-17.043492	
3	0.0150	457.442383	1324.562511	-68.378931	473.172810	1327.875147	-398.626716	456.944650	1412.824138	-232.559160	484.669212	1259.965770	-228.231363	512.839569	1071.970930	10.212005	714.867861	927.006264	-53.977541	500.042922	1064.022796	-468.971469	634.136340	834.218775	-434.419415	-36.007019	1136.598700	-223.016786	150.034373	1087.214693	-397.182295	124.140256	1102.469771	-59.751654	153.917390	1021.371259	-364.244018	143.690743	1049.482947	-87.697181	4.755969	1173.210221	-200.750264	-0.273706	1166.117677	-261.474705	82.846517	1053.100359	-23.987232	100.222559	1018.698175	-424.297956	184.149707	983.343123	-20.906262	271.498198	957.908018	-23.804741	331.101447	895.031750	-24.623779	286.947398	987.354964	-43.127177	396.120445	808.465360	-45.291287	393.477748	782.325299	-155.211727	354.589866	693.710688	-18.424732	343.488361	608.537724	-38.825852	294.706931	536.827736	-40.927342	365.116455	604.642466	-71.730611	258.514086	459.043724	-45.886382	196.228874	428.608407	-96.142697	470.899709	406.814927	-103.042264	376.303658	386.670629	-30.173316	143.750016	906.417133	-428.734460	211.785346	852.744851	-420.579148	240.407970	874.238334	-408.837586	243.919670	769.679055	-412.763017	267.517599	662.667375	-384.031982	267.760346	646.358880	-267.504585	20.173388	388.294058	-376.574677	-54.809979	401.428948	-329.680764	82.959114	260.554838	-400.473813	200.608041	580.866310	-406.664055	161.364174	505.137648	-387.933982	87.195300	455.457809	-387.024454	181.238550	492.924302	-356.627874	158.743379	218.900435	-343.167693	-157.276243	856.625332	-223.688778	-48.857716	80.028039	-414.545279	-48.592059	79.554747	-17.041151	
